<svg width="1117" height="858" viewBox="0 0 1117 858" fill="none" xmlns="http://www.w3.org/2000/svg">
<g clip-path="url(#clip0)">
<path opacity="0.1" d="M1089.16 582.74C1088.16 583.47 1087.24 584.18 1086.26 584.87C1082.64 587.427 1078.86 589.736 1074.93 591.78C1054.35 602.63 1028.98 607.93 1004.27 611.53C948.85 619.61 892.27 621.18 835.93 622.72C683.7 626.9 531.1 631.07 379.24 621.44C319.24 617.64 257.92 611.28 203.55 591.78C195.756 588.993 188.116 585.92 180.63 582.56C165.48 575.75 150.93 567.46 138.83 557.56C127.46 548.28 118.24 537.62 112.73 525.5C101.24 500.26 107.32 471.91 120.44 447.17C125.889 437.161 132.034 427.548 138.83 418.4C148.96 404.47 160.13 390.94 170.32 377.02C206.58 327.54 230.24 264.94 196.77 214.19C187.15 199.61 173.25 186.81 165.41 171.59C155.41 152.12 156.18 130.5 159.36 109.5C159.773 106.833 160.21 104.193 160.67 101.58C166.1 70.4398 176.32 36.8898 207.83 17.4498C240.56 -2.75018 287.04 -1.73018 327.66 5.44982C390.83 16.7298 449.1 40.2098 507.99 61.4098C566.88 82.6098 628.49 101.98 693.21 104.06C750.36 105.9 817.02 92.1298 854.95 56.3398C891.79 21.5798 961.04 18.9298 1010.95 39.9298C1045.21 54.3398 1070.77 80.2998 1081.55 109.5C1083.73 115.362 1085.3 121.434 1086.24 127.62C1087.1 133.273 1087.39 138.999 1087.08 144.71C1086.93 147.53 1086.64 150.32 1086.24 153.08C1077.9 210.7 1017.87 256.15 981.38 307.62C963.55 332.76 950.96 362.96 963.22 390.07C981.92 431.38 1046.95 446.07 1086.22 476.81C1093.61 482.404 1100.12 489.079 1105.52 496.61C1124.57 523.97 1117.54 560.92 1089.16 582.74Z" fill="#6C63FF"/>
<path d="M257.989 324.86C257.989 324.86 211.989 243.34 142.669 219.86C113.579 210 88.1889 191.46 70.8289 166.12C62.6103 154.089 55.5138 141.329 49.6289 128" stroke="#535461" stroke-width="2" stroke-miterlimit="10"/>
<path d="M6.03952 112.91C13.9395 120.54 50.7195 128.54 50.7195 128.54C50.7195 128.54 41.7195 92.0203 33.7995 84.3503C29.9924 80.7452 24.918 78.7855 19.676 78.896C14.434 79.0065 9.44674 81.1782 5.79493 84.9405C2.14312 88.7029 0.120993 93.7527 0.166776 98.9956C0.21256 104.239 2.32256 109.252 6.03952 112.95V112.91Z" fill="#6C63FF"/>
<path d="M26.8492 179C37.6392 181.14 72.8492 167.81 72.8492 167.81C72.8492 167.81 45.3992 142.05 34.5992 139.91C29.4663 139.007 24.1836 140.149 19.8833 143.094C15.5829 146.038 12.6071 150.55 11.5935 155.663C10.5799 160.775 11.6093 166.081 14.461 170.443C17.3127 174.806 21.7598 177.878 26.8492 179V179Z" fill="#6C63FF"/>
<path d="M102.599 250.54C112.999 246.94 136.599 217.67 136.599 217.67C136.599 217.67 99.919 209.28 89.529 212.88C86.9796 213.672 84.6154 214.968 82.5765 216.691C80.5377 218.415 78.8658 220.53 77.6602 222.912C76.4545 225.293 75.7396 227.893 75.5579 230.557C75.3763 233.22 75.7315 235.893 76.6026 238.416C77.4736 240.939 78.8428 243.262 80.6287 245.246C82.4147 247.23 84.5811 248.836 86.9993 249.966C89.4174 251.097 92.0382 251.731 94.7059 251.829C97.3736 251.928 100.034 251.489 102.529 250.54H102.599Z" fill="#6C63FF"/>
<path d="M172.1 291.73C182.96 289.93 211.2 265.08 211.2 265.08C211.2 265.08 176.47 250.61 165.61 252.4C160.394 253.261 155.734 256.158 152.655 260.455C149.576 264.751 148.329 270.095 149.19 275.31C150.05 280.526 152.948 285.186 157.244 288.265C161.541 291.345 166.884 292.591 172.1 291.73V291.73Z" fill="#6C63FF"/>
<path d="M103.49 139.27C103.49 150.27 83.5898 182.2 83.5898 182.2C83.5898 182.2 63.6498 150.29 63.6398 139.29C63.5803 136.636 64.0517 133.997 65.0263 131.528C66.0009 129.058 67.4591 126.808 69.3152 124.91C71.1713 123.012 73.3879 121.504 75.8349 120.474C78.2819 119.444 80.9099 118.914 83.5648 118.914C86.2196 118.914 88.8476 119.444 91.2946 120.474C93.7416 121.504 95.9583 123.012 97.8144 124.91C99.6704 126.808 101.129 129.058 102.103 131.528C103.078 133.997 103.549 136.636 103.49 139.29V139.27Z" fill="#6C63FF"/>
<path d="M184.17 188.54C180.88 199.04 152.33 223.54 152.33 223.54C152.33 223.54 142.85 187.09 146.1 176.54C147.847 171.71 151.391 167.74 155.994 165.46C160.596 163.179 165.902 162.764 170.803 164.3C175.705 165.836 179.824 169.205 182.301 173.705C184.779 178.205 185.423 183.487 184.1 188.45L184.17 188.54Z" fill="#6C63FF"/>
<path d="M256.01 247.09C254.55 258 230.55 286.97 230.55 286.97C230.55 286.97 215.05 252.69 216.55 241.78C217.326 236.605 220.107 231.943 224.291 228.801C228.476 225.659 233.728 224.288 238.914 224.985C244.1 225.683 248.804 228.391 252.01 232.527C255.216 236.663 256.667 241.894 256.05 247.09H256.01Z" fill="#6C63FF"/>
<path opacity="0.25" d="M6.03952 112.91C13.9395 120.54 50.7195 128.54 50.7195 128.54C50.7195 128.54 41.7195 92.0203 33.7995 84.3503C29.9924 80.7452 24.918 78.7855 19.676 78.896C14.434 79.0065 9.44674 81.1782 5.79493 84.9405C2.14312 88.7029 0.120993 93.7527 0.166776 98.9956C0.21256 104.239 2.32256 109.252 6.03952 112.95V112.91Z" fill="black"/>
<path opacity="0.25" d="M26.8492 179C37.6392 181.14 72.8492 167.81 72.8492 167.81C72.8492 167.81 45.3992 142.05 34.5992 139.91C29.4663 139.007 24.1836 140.149 19.8833 143.094C15.5829 146.038 12.6071 150.55 11.5935 155.663C10.5799 160.775 11.6093 166.081 14.461 170.443C17.3127 174.806 21.7598 177.878 26.8492 179V179Z" fill="black"/>
<path opacity="0.25" d="M102.599 250.54C112.999 246.94 136.599 217.67 136.599 217.67C136.599 217.67 99.919 209.28 89.529 212.88C86.9796 213.672 84.6154 214.968 82.5765 216.691C80.5377 218.415 78.8658 220.53 77.6602 222.912C76.4545 225.293 75.7396 227.893 75.5579 230.557C75.3763 233.22 75.7315 235.893 76.6026 238.416C77.4736 240.939 78.8428 243.262 80.6287 245.246C82.4147 247.23 84.5811 248.836 86.9993 249.966C89.4174 251.097 92.0382 251.731 94.7059 251.829C97.3736 251.928 100.034 251.489 102.529 250.54H102.599Z" fill="black"/>
<path opacity="0.25" d="M172.1 291.73C182.96 289.93 211.2 265.08 211.2 265.08C211.2 265.08 176.47 250.61 165.61 252.4C160.394 253.261 155.734 256.158 152.655 260.455C149.576 264.751 148.329 270.095 149.19 275.31C150.05 280.526 152.948 285.186 157.244 288.265C161.541 291.345 166.884 292.591 172.1 291.73V291.73Z" fill="black"/>
<path opacity="0.25" d="M103.49 139.27C103.49 150.27 83.5898 182.2 83.5898 182.2C83.5898 182.2 63.6498 150.29 63.6398 139.29C63.5803 136.636 64.0517 133.997 65.0263 131.528C66.0009 129.058 67.4591 126.808 69.3152 124.91C71.1713 123.012 73.3879 121.504 75.8349 120.474C78.2819 119.444 80.9099 118.914 83.5648 118.914C86.2196 118.914 88.8476 119.444 91.2946 120.474C93.7416 121.504 95.9583 123.012 97.8144 124.91C99.6704 126.808 101.129 129.058 102.103 131.528C103.078 133.997 103.549 136.636 103.49 139.29V139.27Z" fill="black"/>
<path opacity="0.25" d="M184.17 188.54C180.88 199.04 152.33 223.54 152.33 223.54C152.33 223.54 142.85 187.09 146.1 176.54C147.847 171.71 151.391 167.74 155.994 165.46C160.596 163.179 165.902 162.764 170.803 164.3C175.705 165.836 179.824 169.205 182.301 173.705C184.779 178.205 185.423 183.487 184.1 188.45L184.17 188.54Z" fill="black"/>
<path opacity="0.25" d="M256.01 247.09C254.55 258 230.55 286.97 230.55 286.97C230.55 286.97 215.05 252.69 216.55 241.78C217.326 236.605 220.107 231.943 224.291 228.801C228.476 225.659 233.728 224.288 238.914 224.985C244.1 225.683 248.804 228.391 252.01 232.527C255.216 236.663 256.667 241.894 256.05 247.09H256.01Z" fill="black"/>
<path d="M255.339 323.241C255.339 323.241 246.339 230.061 192.459 180.501C169.869 159.701 154.169 132.501 148.559 102.261C145.926 87.9277 144.614 73.3833 144.639 58.8105" stroke="#535461" stroke-width="2" stroke-miterlimit="10"/>
<path d="M110.89 27.3801C115.01 37.5901 145.42 59.7401 145.42 59.7401C145.42 59.7401 151.97 22.6901 147.86 12.4801C145.884 7.57355 142.04 3.65292 137.173 1.58064C132.307 -0.491637 126.816 -0.5458 121.91 1.43006C117.003 3.40593 113.083 7.24996 111.01 12.1165C108.938 16.9831 108.884 22.4736 110.86 27.3801H110.89Z" fill="#6C63FF"/>
<path d="M103.099 96.2297C112.099 102.56 149.669 104.63 149.669 104.63C149.669 104.63 135.099 69.9697 126.099 63.6397C121.777 60.5897 116.421 59.3814 111.208 60.2806C105.996 61.1799 101.354 64.113 98.3037 68.4347C95.2537 72.7564 94.0455 78.1127 94.9447 83.3252C95.8439 88.5378 98.777 93.1797 103.099 96.2297V96.2297Z" fill="#6C63FF"/>
<path d="M143.409 192.31C154.409 193.24 187.849 176.05 187.849 176.05C187.849 176.05 157.719 153.52 146.749 152.6C144.11 152.319 141.44 152.568 138.899 153.333C136.357 154.097 133.993 155.362 131.947 157.053C129.9 158.743 128.212 160.825 126.981 163.177C125.75 165.529 125.002 168.103 124.779 170.748C124.557 173.393 124.865 176.056 125.685 178.58C126.506 181.105 127.823 183.439 129.558 185.448C131.294 187.457 133.413 189.098 135.791 190.277C138.17 191.455 140.76 192.146 143.409 192.31Z" fill="#6C63FF"/>
<path d="M190.249 258.15C200.909 260.91 236.799 249.63 236.799 249.63C236.799 249.63 210.909 222.33 200.259 219.57C195.176 218.339 189.812 219.155 185.324 221.843C180.837 224.531 177.587 228.876 176.274 233.939C174.962 239.003 175.693 244.379 178.309 248.909C180.925 253.438 185.218 256.757 190.259 258.15H190.249Z" fill="#6C63FF"/>
<path d="M189.299 90.9705C184.849 101.03 153.709 122.14 153.709 122.14C153.709 122.14 148.409 84.9005 152.859 74.8305C153.89 72.3941 155.395 70.1873 157.287 68.3388C159.18 66.4902 161.421 65.0368 163.881 64.0634C166.341 63.09 168.969 62.616 171.614 62.669C174.259 62.7221 176.867 63.3012 179.286 64.3725C181.704 65.4438 183.886 66.9859 185.702 68.9089C187.519 70.8319 188.934 73.0973 189.866 75.573C190.799 78.0487 191.228 80.6852 191.131 83.3288C191.034 85.9723 190.411 88.5701 189.299 90.9705V90.9705Z" fill="#6C63FF"/>
<path d="M243.099 168.65C235.839 176.92 199.809 187.75 199.809 187.75C199.809 187.75 205.889 150.63 213.159 142.36C214.885 140.394 216.981 138.788 219.328 137.632C221.676 136.476 224.227 135.794 226.838 135.625C229.449 135.455 232.067 135.802 234.544 136.644C237.021 137.487 239.308 138.809 241.274 140.535C243.239 142.261 244.846 144.358 246.002 146.705C247.157 149.052 247.839 151.604 248.009 154.215C248.178 156.825 247.832 159.444 246.989 161.921C246.147 164.398 244.825 166.684 243.099 168.65V168.65Z" fill="#6C63FF"/>
<path d="M285.1 251.34C279.34 260.72 245.66 277.48 245.66 277.48C245.66 277.48 245.38 239.86 251.14 230.48C253.907 225.972 258.351 222.747 263.495 221.514C268.639 220.282 274.062 221.144 278.57 223.91C283.079 226.677 286.304 231.121 287.536 236.265C288.768 241.409 287.907 246.832 285.14 251.34H285.1Z" fill="#6C63FF"/>
<path opacity="0.1" d="M408.161 851.7C469.757 851.7 519.691 845.199 519.691 837.18C519.691 829.161 469.757 822.66 408.161 822.66C346.565 822.66 296.631 829.161 296.631 837.18C296.631 845.199 346.565 851.7 408.161 851.7Z" fill="#6C63FF"/>
<path opacity="0.1" d="M182.88 841.861C201.591 841.861 216.76 839.264 216.76 836.061C216.76 832.857 201.591 830.261 182.88 830.261C164.169 830.261 149 832.857 149 836.061C149 839.264 164.169 841.861 182.88 841.861Z" fill="#6C63FF"/>
<path d="M190.239 771.48C190.239 771.48 195.729 778.67 187.699 789.48C179.669 800.29 173.049 809.48 175.699 816.25C175.699 816.25 187.809 796.1 197.699 795.82C207.589 795.54 201.099 783.6 190.239 771.48Z" fill="#6C63FF"/>
<path opacity="0.1" d="M190.239 771.48C190.719 772.176 191.096 772.937 191.359 773.74C200.979 785.04 206.109 795.59 196.859 795.85C188.249 796.1 177.909 811.5 175.439 815.39C175.521 815.692 175.618 815.989 175.729 816.28C175.729 816.28 187.839 796.13 197.729 795.85C207.619 795.57 201.099 783.6 190.239 771.48Z" fill="black"/>
<path d="M200.45 780.641C200.45 783.171 200.17 785.221 199.82 785.221C199.47 785.221 199.18 783.221 199.18 780.641C199.18 778.061 199.54 779.301 199.89 779.301C200.24 779.301 200.45 778.111 200.45 780.641Z" fill="#FFD037"/>
<path d="M203.959 783.661C201.739 784.871 199.799 785.601 199.629 785.291C199.459 784.981 201.129 783.751 203.349 782.541C205.569 781.331 204.689 782.211 204.859 782.541C205.029 782.871 206.179 782.451 203.959 783.661Z" fill="#FFD037"/>
<path d="M161.219 771.48C161.219 771.48 155.729 778.67 163.759 789.48C171.789 800.29 178.409 809.48 175.759 816.25C175.759 816.25 163.649 796.1 153.759 795.82C143.869 795.54 150.379 783.6 161.219 771.48Z" fill="#6C63FF"/>
<path opacity="0.1" d="M161.219 771.48C160.739 772.176 160.362 772.937 160.099 773.74C150.479 785.04 145.349 795.59 154.599 795.85C163.219 796.1 173.549 811.5 176.019 815.39C175.942 815.693 175.845 815.99 175.729 816.28C175.729 816.28 163.619 796.13 153.729 795.85C143.839 795.57 150.379 783.6 161.219 771.48Z" fill="black"/>
<path d="M151.01 780.641C151.01 783.171 151.29 785.221 151.64 785.221C151.99 785.221 152.28 783.221 152.28 780.641C152.28 778.061 151.92 779.301 151.57 779.301C151.22 779.301 151.01 778.111 151.01 780.641Z" fill="#FFD037"/>
<path d="M147.51 783.661C149.73 784.871 151.66 785.601 151.83 785.291C152 784.981 150.33 783.751 148.11 782.541C145.89 781.331 146.77 782.211 146.6 782.541C146.43 782.871 145.29 782.451 147.51 783.661Z" fill="#FFD037"/>
<path d="M152.76 815.34C152.76 815.34 168.12 814.861 172.76 811.571C177.4 808.281 196.38 804.331 197.53 809.621C198.68 814.911 220.61 835.911 203.27 836.051C185.93 836.191 162.98 833.351 158.36 830.541C153.74 827.731 152.76 815.34 152.76 815.34Z" fill="#A8A8A8"/>
<path opacity="0.2" d="M203.57 834.21C186.23 834.35 163.28 831.51 158.66 828.7C155.14 826.55 153.74 818.86 153.27 815.32H152.76C152.76 815.32 153.76 827.7 158.35 830.52C162.94 833.34 185.92 836.17 203.26 836.03C208.26 836.03 210 834.21 209.9 831.57C209.21 833.19 207.3 834.18 203.57 834.21Z" fill="black"/>
<path d="M665.699 814.75C665.699 814.75 623.419 812.2 628.409 841.83C628.409 841.83 627.409 847.06 632.159 849.44C632.159 849.44 632.239 847.25 636.499 847.99C638.015 848.246 639.556 848.319 641.089 848.21C643.166 848.073 645.141 847.258 646.709 845.89V845.89C646.709 845.89 658.589 840.99 663.209 821.56C663.209 821.56 666.629 817.32 666.499 816.23L659.359 819.23C659.359 819.23 661.799 824.38 659.879 828.66C659.879 828.66 659.649 819.42 658.279 819.66C657.999 819.66 654.569 821.44 654.569 821.44C654.569 821.44 658.769 830.44 655.569 836.92C655.569 836.92 656.769 825.92 653.229 822.09L648.229 825.02C648.229 825.02 653.129 834.28 649.809 841.84C649.809 841.84 650.659 830.25 647.179 825.73L642.629 829.28C642.629 829.28 647.229 838.41 644.419 844.68C644.419 844.68 644.059 831.19 641.639 830.17C641.639 830.17 637.639 833.68 637.049 835.17C637.049 835.17 640.199 841.79 638.249 845.29C638.249 845.29 637.049 836.29 636.059 836.29C636.059 836.29 632.059 842.29 631.679 846.29C631.679 846.29 631.859 840.22 635.099 835.68C632.812 836.116 630.702 837.211 629.029 838.83C629.029 838.83 629.649 834.62 636.029 834.25C636.029 834.25 639.309 829.73 640.189 829.46C640.189 829.46 633.789 828.92 629.909 830.64C629.909 830.64 633.319 826.64 641.359 828.47L645.849 824.81C645.849 824.81 637.429 823.65 633.849 824.93C633.849 824.93 637.969 821.41 647.059 823.93L651.959 821.01C651.959 821.01 644.769 819.46 640.489 820.01C640.489 820.01 645.009 817.57 653.389 820.21L656.889 818.64C656.889 818.64 651.619 817.64 650.079 817.45C648.539 817.26 648.459 816.86 648.459 816.86C651.794 816.304 655.218 816.685 658.349 817.96C658.349 817.96 665.829 815.22 665.699 814.75Z" fill="#6C63FF"/>
<path opacity="0.1" d="M636.58 857.081C653.105 857.081 666.5 854.815 666.5 852.021C666.5 849.226 653.105 846.961 636.58 846.961C620.056 846.961 606.66 849.226 606.66 852.021C606.66 854.815 620.056 857.081 636.58 857.081Z" fill="#6C63FF"/>
<path d="M591.63 816.33C591.63 816.33 567.79 814.89 570.63 831.6C570.486 832.447 570.614 833.318 570.995 834.088C571.375 834.859 571.989 835.489 572.75 835.89C572.75 835.89 572.749 834.65 575.199 835.07C576.052 835.209 576.917 835.252 577.779 835.2C578.949 835.114 580.061 834.655 580.949 833.89V833.89C580.949 833.89 587.649 831.12 590.259 820.17C590.259 820.17 592.18 817.78 592.11 817.17L588.11 818.88C588.11 818.88 589.479 821.79 588.399 824.2C588.399 824.2 588.27 818.99 587.5 819.11C587.34 819.11 585.409 820.11 585.409 820.11C585.409 820.11 587.77 825.11 585.99 828.84C585.99 828.84 586.659 822.61 584.669 820.47L581.839 822.13C581.839 822.13 584.599 827.35 582.729 831.61C582.729 831.61 583.21 825.07 581.24 822.53L578.68 824.53C578.68 824.53 581.27 829.68 579.68 833.21C579.68 833.21 579.47 825.6 578.11 825.03C577.136 825.851 576.266 826.788 575.519 827.82C575.519 827.82 577.299 831.56 576.199 833.53C576.199 833.53 575.519 828.46 574.969 828.44C574.969 828.44 572.73 831.8 572.5 834.1C572.601 831.966 573.263 829.896 574.419 828.1C573.131 828.344 571.942 828.959 571 829.87C571 829.87 571.35 827.49 575 827.29C575 827.29 576.839 824.74 577.339 824.59C577.339 824.59 573.729 824.28 571.539 825.25C571.539 825.25 573.47 823.01 578 824.03L580.529 821.96C580.529 821.96 575.779 821.31 573.769 822.03C573.769 822.03 576.089 820.03 581.219 821.49L583.969 819.85C581.85 819.38 579.678 819.192 577.509 819.29C577.509 819.29 580.059 817.92 584.779 819.4L586.779 818.52C586.779 818.52 583.779 817.93 582.949 817.84C582.119 817.75 582.029 817.51 582.029 817.51C583.911 817.197 585.843 817.412 587.61 818.13C587.61 818.13 591.7 816.6 591.63 816.33Z" fill="#6C63FF"/>
<path opacity="0.1" d="M575.21 840.2C584.527 840.2 592.08 838.924 592.08 837.35C592.08 835.776 584.527 834.5 575.21 834.5C565.893 834.5 558.34 835.776 558.34 837.35C558.34 838.924 565.893 840.2 575.21 840.2Z" fill="#6C63FF"/>
<path d="M636.999 780.92C636.999 780.92 608.229 779.18 611.619 799.35C611.445 800.374 611.599 801.425 612.059 802.356C612.519 803.286 613.261 804.047 614.179 804.53C614.179 804.53 614.179 803.04 617.129 803.53C618.161 803.695 619.207 803.745 620.249 803.68C621.663 803.579 623.006 803.025 624.079 802.1V802.1C624.079 802.1 632.169 798.76 635.309 785.53C635.309 785.53 637.639 782.65 637.549 781.91L632.689 783.98C632.689 783.98 634.349 787.49 633.049 790.4C633.049 790.4 632.889 784.11 631.949 784.26C631.769 784.26 629.429 785.47 629.429 785.47C629.429 785.47 632.289 791.58 630.129 796.01C630.129 796.01 630.949 788.49 628.539 785.91L625.119 787.91C625.119 787.91 628.459 794.21 626.199 799.36C626.199 799.36 626.779 791.47 624.399 788.36L621.299 790.77C621.299 790.77 624.439 796.981 622.529 801.251C622.529 801.251 622.279 792.07 620.629 791.37C620.629 791.37 617.919 793.76 617.509 794.74C617.509 794.74 619.659 799.251 618.319 801.631C618.319 801.631 617.509 795.52 616.839 795.49C616.839 795.49 614.139 799.491 613.839 802.321C613.968 799.752 614.768 797.263 616.159 795.1C614.604 795.396 613.168 796.14 612.029 797.24C612.029 797.24 612.449 794.37 616.829 794.12C616.829 794.12 619.059 791.05 619.659 790.86C619.659 790.86 615.299 790.5 612.659 791.67C612.659 791.67 614.979 788.961 620.459 790.191L623.519 787.7C623.519 787.7 617.779 786.91 615.349 787.78C615.349 787.78 618.149 785.391 624.349 787.131L627.679 785.131C627.679 785.131 622.789 784.13 619.879 784.46C619.879 784.46 622.949 782.8 628.659 784.59L631.039 783.53C631.039 783.53 627.449 782.82 626.399 782.71C625.349 782.6 625.299 782.311 625.299 782.311C627.569 781.933 629.899 782.192 632.029 783.061C632.029 783.061 637.099 781.24 636.999 780.92Z" fill="#6C63FF"/>
<path opacity="0.1" d="M617.19 809.731C628.44 809.731 637.56 808.19 637.56 806.291C637.56 804.391 628.44 802.851 617.19 802.851C605.94 802.851 596.82 804.391 596.82 806.291C596.82 808.19 605.94 809.731 617.19 809.731Z" fill="#6C63FF"/>
<path d="M1088.1 584.67V95.54H136.75V556.61C148.9 566.75 163.51 575.28 178.75 582.29C186.257 585.75 193.923 588.913 201.75 591.78H1076.75L1088.1 584.67Z" fill="url(#paint0_linear)"/>
<path d="M1086.26 584.87V109.54H138.83V557.64C150.93 567.5 165.48 575.79 180.63 582.64C188.11 585.973 195.75 589.047 203.55 591.86H1074.93L1086.26 584.87Z" fill="white"/>
<path d="M1086.26 96.9297H138.84V122.07H1086.26V96.9297Z" fill="#5A5773"/>
<path d="M157.76 116C161.35 116 164.26 113.09 164.26 109.5C164.26 105.91 161.35 103 157.76 103C154.17 103 151.26 105.91 151.26 109.5C151.26 113.09 154.17 116 157.76 116Z" fill="white"/>
<path d="M175.26 116C178.85 116 181.76 113.09 181.76 109.5C181.76 105.91 178.85 103 175.26 103C171.67 103 168.76 105.91 168.76 109.5C168.76 113.09 171.67 116 175.26 116Z" fill="white"/>
<path d="M192.76 116C196.35 116 199.26 113.09 199.26 109.5C199.26 105.91 196.35 103 192.76 103C189.17 103 186.26 105.91 186.26 109.5C186.26 113.09 189.17 116 192.76 116Z" fill="white"/>
<path d="M537.449 177.32H380.949V275.66H537.449V177.32Z" fill="#6C63FF"/>
<path opacity="0.2" d="M320.76 177.32H164.26V275.66H320.76V177.32Z" fill="#5A5773"/>
<path opacity="0.2" d="M754.141 177.32H597.641V275.66H754.141V177.32Z" fill="#5A5773"/>
<path opacity="0.2" d="M320.76 317.91H164.26V416.25H320.76V317.91Z" fill="#5A5773"/>
<path opacity="0.2" d="M537.449 317.91H380.949V416.25H537.449V317.91Z" fill="#5A5773"/>
<path opacity="0.2" d="M754.141 317.91H597.641V416.25H754.141V317.91Z" fill="#5A5773"/>
<path opacity="0.2" d="M320.76 458.49H164.26V556.83H320.76V458.49Z" fill="#5A5773"/>
<path opacity="0.2" d="M537.449 458.49H380.949V556.83H537.449V458.49Z" fill="#5A5773"/>
<path opacity="0.2" d="M754.141 458.49H597.641V556.83H754.141V458.49Z" fill="#5A5773"/>
<path opacity="0.1" d="M827.21 30.2191C827.21 30.2191 789.16 27.9291 793.65 54.5891C793.65 54.5891 792.76 59.2991 797.03 61.4391C797.03 61.4391 797.1 59.4391 800.93 60.1291C802.293 60.3587 803.68 60.4258 805.06 60.3291C806.922 60.2002 808.692 59.4663 810.1 58.2391V58.2391C810.1 58.2391 820.79 53.8291 824.95 36.3491C824.95 36.3491 828.03 32.5291 827.95 31.5491L821.53 34.2991C821.53 34.2991 823.72 38.9291 821.99 42.7791C821.99 42.7791 821.79 34.4591 820.55 34.6591C820.3 34.6591 817.22 36.2591 817.22 36.2591C817.22 36.2591 820.99 44.3291 818.14 50.1991C818.14 50.1991 819.22 40.2591 816.04 36.8491L811.5 39.5391C811.5 39.5391 815.91 47.8691 812.92 54.6691C812.92 54.6691 813.69 44.2391 810.55 40.1791L806.45 43.3691C806.45 43.3691 810.6 51.5391 808.1 57.1791C808.1 57.1791 807.77 45.0291 805.59 44.1191C805.59 44.1191 802.01 47.2791 801.47 48.5791C801.47 48.5791 804.3 54.5791 802.54 57.6791C802.54 57.6791 801.46 49.5991 800.54 49.5591C800.54 49.5591 796.97 54.9191 796.6 58.5591C796.773 55.1626 797.831 51.8705 799.67 49.0091C797.61 49.399 795.711 50.3867 794.21 51.8491C794.21 51.8491 794.76 48.0591 800.55 47.7191C800.55 47.7191 803.5 43.6591 804.29 43.4091C804.29 43.4091 798.53 42.9291 795.04 44.4791C795.04 44.4791 798.11 40.8991 805.35 42.4791L809.35 39.1791C809.35 39.1791 801.77 38.1791 798.55 39.2891C798.55 39.2891 802.25 36.1291 810.44 38.4291L814.84 35.7991C814.84 35.7991 808.38 34.3991 804.53 34.9091C804.53 34.9091 808.59 32.7191 816.13 35.0891L819.28 33.6791C819.28 33.6791 814.54 32.7491 813.16 32.5991C811.78 32.4491 811.7 32.0691 811.7 32.0691C814.698 31.5701 817.777 31.9163 820.59 33.0691C820.59 33.0691 827.32 30.6391 827.21 30.2191Z" fill="#6C63FF"/>
<path opacity="0.1" d="M772.98 8.59961C772.98 8.59961 740.98 29.3096 760.39 48.1196C760.39 48.1196 762.46 52.4396 767.17 51.6396C767.17 51.6396 766.05 49.9996 769.54 48.2696C770.778 47.6467 771.936 46.8779 772.99 45.9796C774.415 44.7712 775.409 43.1321 775.82 41.3096V41.3096C775.82 41.3096 781.82 31.4096 774.82 14.8696C774.82 14.8696 775.04 9.96961 774.36 9.24961L770.82 15.2496C770.82 15.2496 775.33 17.6796 776.22 21.7996C776.22 21.7996 771.13 15.2296 770.22 16.1196C770.04 16.2996 768.48 19.3896 768.48 19.3896C768.48 19.3896 776.31 23.6496 777.48 30.0596C777.48 30.0596 772.48 21.4096 767.87 20.5596L765.79 25.3596C765.79 25.3596 774.29 29.4596 775.91 36.7096C775.91 36.7096 770.34 27.8496 765.41 26.4396L764.01 31.4396C764.01 31.4396 772.21 35.5996 773.52 41.6396C773.52 41.6396 766.06 32.0596 763.76 32.6396C763.76 32.6396 762.76 37.2996 763.08 38.6396C763.08 38.6396 768.9 41.7596 769.34 45.3396C769.34 45.3396 763.68 39.4696 762.95 39.9596C762.95 39.9596 763.25 46.3896 765.12 49.5696C763.251 46.7304 762.155 43.4523 761.94 40.0596C760.513 41.5936 759.567 43.513 759.22 45.5796C759.22 45.5796 757.42 42.1996 761.89 38.4996C761.89 38.4996 761.89 33.4996 762.34 32.8096C762.34 32.8096 757.42 35.8096 755.52 39.1496C755.52 39.1496 755.88 34.4496 762.67 31.4696L763.97 26.4196C763.97 26.4196 757.25 30.0796 755.34 32.9096C755.34 32.9096 756.45 28.1696 764.4 25.1696L766.4 20.4396C766.4 20.4396 760.4 23.1496 757.56 25.8396C757.56 25.8396 759.56 21.6596 767.02 19.1096L768.72 16.1096C768.72 16.1096 764.35 18.1696 763.15 18.8696C761.95 19.5696 761.66 19.3096 761.66 19.3096C763.779 17.1297 766.462 15.5821 769.41 14.8396C769.41 14.8396 773.32 8.87961 772.98 8.59961Z" fill="#6C63FF"/>
<path opacity="0.1" d="M724.28 32.7296C724.28 32.7296 705.15 65.7297 730.98 73.6597C730.98 73.6597 734.79 76.5697 738.62 73.6597C738.62 73.6597 736.89 72.7197 739.21 69.5897C740.016 68.4725 740.688 67.2641 741.21 65.9896C741.933 64.2652 742.077 62.3528 741.62 60.5396V60.5396C741.62 60.5396 742.47 48.9996 728.72 37.4296C728.72 37.4296 726.72 32.9696 725.72 32.6396L725.29 39.6396C725.29 39.6396 730.41 39.7596 733.08 43.0296C733.08 43.0296 725.56 39.4797 725.18 40.6697C725.1 40.9097 725.11 44.3697 725.11 44.3697C725.11 44.3697 734.1 44.6396 738.1 49.8196C738.1 49.8196 729.7 44.3896 725.23 45.7096L725.55 50.9296C725.55 50.9296 734.98 50.7296 739.71 56.4596C739.71 56.4596 730.71 51.0896 725.71 52.0696L726.71 57.1597C726.71 57.1597 735.91 57.1597 739.81 61.9397C739.81 61.9397 728.81 56.7796 727.02 58.3096C727.02 58.3096 728.23 62.9296 729.15 63.9996C729.15 63.9996 735.75 64.1396 737.77 67.1296C737.77 67.1296 730.06 64.4596 729.63 65.2396C729.63 65.2396 732.82 70.8296 735.93 72.8096C732.98 71.1368 730.515 68.7243 728.78 65.8096C728.205 67.8234 728.233 69.9616 728.86 71.9596C728.86 71.9596 725.72 69.7697 728.02 64.4397C728.02 64.4397 725.72 59.9796 725.85 59.1696C725.85 59.1696 722.85 64.0997 722.65 67.9097C722.65 67.9097 720.83 63.5597 725.53 57.8297L724.4 52.7297C724.4 52.7297 720.07 59.0396 719.65 62.4296C719.65 62.4296 718.49 57.6996 724.22 51.4296L723.84 46.3196C723.84 46.3196 719.7 51.4696 718.42 55.1396C718.42 55.1396 718.28 50.5196 723.79 44.8496L723.94 41.3997C723.94 41.3997 720.94 45.2097 720.23 46.3997C719.52 47.5897 719.1 47.4196 719.1 47.4196C720.002 44.5134 721.691 41.9138 723.98 39.9096C723.98 39.9096 724.7 32.8196 724.28 32.7296Z" fill="#6C63FF"/>
<path d="M888.529 408.91C885.699 408.91 882.932 409.749 880.579 411.322C878.226 412.894 876.392 415.129 875.309 417.744C874.226 420.359 873.942 423.236 874.494 426.012C875.047 428.788 876.409 431.338 878.411 433.339C880.412 435.34 882.962 436.703 885.738 437.255C888.514 437.807 891.391 437.524 894.006 436.441C896.62 435.358 898.855 433.524 900.428 431.17C902 428.817 902.839 426.05 902.839 423.22C902.829 419.428 901.318 415.794 898.636 413.113C895.955 410.432 892.321 408.921 888.529 408.91V408.91ZM846.689 296.62V310.93H860.999L886.759 363.11L875.989 380.64C874.814 382.714 874.197 385.057 874.199 387.44C874.199 397.02 880.749 401.75 889.629 401.75H973.299V387.99H891.379C891.141 388.005 890.901 387.968 890.677 387.884C890.454 387.799 890.25 387.668 890.081 387.498C889.912 387.329 889.781 387.126 889.696 386.902C889.611 386.678 889.575 386.439 889.589 386.2C889.778 385.581 890.033 384.984 890.349 384.42L897.499 373.13H950.809C953.385 373.151 955.917 372.461 958.126 371.136C960.335 369.811 962.135 367.903 963.329 365.62L989.099 321.31C989.602 320.185 989.848 318.962 989.819 317.73C989.809 316.809 989.615 315.9 989.247 315.056C988.879 314.212 988.345 313.45 987.678 312.816C987.01 312.182 986.222 311.688 985.36 311.364C984.498 311.04 983.58 310.893 982.659 310.93H876.749L869.949 296.62H846.689ZM958.979 408.91C956.15 408.912 953.384 409.753 951.032 411.327C948.68 412.9 946.847 415.136 945.766 417.751C944.684 420.366 944.402 423.243 944.956 426.018C945.509 428.793 946.873 431.342 948.874 433.342C950.876 435.343 953.426 436.705 956.201 437.256C958.977 437.807 961.854 437.523 964.468 436.44C967.082 435.356 969.316 433.522 970.888 431.169C972.46 428.816 973.299 426.05 973.299 423.22C973.289 419.426 971.776 415.791 969.093 413.11C966.409 410.428 962.773 408.918 958.979 408.91V408.91Z" fill="#6C63FF"/>
<path d="M940.67 336.21H928.67V324.21H919.67V336.21H907.67V345.21H919.67V357.21H928.67V345.21H940.67V336.21Z" fill="white"/>
</g>
<defs>
<linearGradient id="paint0_linear" x1="612.42" y1="591.78" x2="612.42" y2="95.54" gradientUnits="userSpaceOnUse">
<stop stop-color="#808080" stop-opacity="0.25"/>
<stop offset="0.54" stop-color="#808080" stop-opacity="0.12"/>
<stop offset="1" stop-color="#808080" stop-opacity="0.1"/>
</linearGradient>
<clipPath id="clip0">
<rect width="1116.21" height="857.08" fill="white"/>
</clipPath>
</defs>
</svg>
